Coordinates
version=1
nRows=20
nColumns=38
inDegrees=no

Units are S.I. units (second, meters, Newtons, ...)
If the header above contains a line with 'inDegrees', this indicates whether rotational values are in degrees (yes) or radians (no).

endheader
time	pelvis_tilt	pelvis_list	pelvis_rotation	pelvis_tx	pelvis_ty	pelvis_tz	hip_flexion_r	hip_adduction_r	hip_rotation_r	knee_angle_r	ankle_angle_r	subtalar_angle_r	mtp_angle_r	hip_flexion_l	hip_adduction_l	hip_rotation_l	knee_angle_l	ankle_angle_l	subtalar_angle_l	mtp_angle_l	lumbar_extension	lumbar_bending	lumbar_rotation	arm_flex_r	arm_add_r	arm_rot_r	elbow_flex_r	pro_sup_r	wrist_flex_r	wrist_dev_r	arm_flex_l	arm_add_l	arm_rot_l	elbow_flex_l	pro_sup_l	wrist_flex_l	wrist_dev_l
21.55	1.13654	1.43655	0.31819	0.793516	-0.409931	0.973325	0.277305	0.0383395	-0.158435	0.467971	0.157833	0	0	0.000137442	-0.0851927	-0.240571	0	0.0167186	0	0	-0.0674462	0.151475	-0.0106482	-0.125687	-0.272573	-0.0778513	1.37586	1.5708	0	0	-0.104779	-0.294118	0.241676	1.31938	1.5708	0	0
21.56	1.14839	1.43648	0.308696	0.794542	-0.409387	0.973412	0.274835	0.0399414	-0.161217	0.462427	0.154065	0	0	-0.00176345	-0.0870726	-0.239531	0	0.0171796	0	0	-0.0691359	0.152376	-0.012011	-0.123824	-0.274956	-0.0817186	1.33878	1.5708	0	0	-0.105329	-0.289003	0.243417	1.27288	1.5708	0	0
21.57	1.15791	1.43711	0.301764	0.795644	-0.408825	0.973434	0.271912	0.0409104	-0.163591	0.456473	0.149931	0	0	-0.00354718	-0.0882029	-0.23827	0	0.017739	0	0	-0.0705938	0.152232	-0.0135832	-0.121495	-0.277144	-0.0841974	1.30079	1.5708	0	0	-0.105071	-0.284382	0.24481	1.22609	1.5708	0	0
21.58	1.1654	1.43833	0.297068	0.796809	-0.408259	0.973407	0.268511	0.0413147	-0.165838	0.449891	0.144801	0	0	-0.00544734	-0.0886663	-0.236464	0	0.0180404	0	0	-0.0717219	0.151254	-0.0154983	-0.118303	-0.279249	-0.0850467	1.26137	1.5708	0	0	-0.103936	-0.279638	0.245287	1.18076	1.5708	0	0
21.59	1.17049	1.44018	0.29487	0.798051	-0.407704	0.97332	0.264846	0.0410737	-0.167905	0.442859	0.13821	0	0	-0.00722607	-0.0884514	-0.234352	0	0.0183253	0	0	-0.0726024	0.149423	-0.0176117	-0.114417	-0.281485	-0.0828504	1.22122	1.55648	0	0	-0.102113	-0.275034	0.244739	1.13807	1.5708	0	0
21.6	1.17221	1.44274	0.295695	0.799388	-0.40707	0.973146	0.260918	0.0402447	-0.169346	0.435541	0.130799	0	0	-0.00877139	-0.0874919	-0.232886	0	0.0190476	0	0	-0.072864	0.146693	-0.0195934	-0.110291	-0.284433	-0.075256	1.18129	1.51902	0	0	-0.100461	-0.270834	0.242974	1.09688	1.5708	0	0
21.61	1.17258	1.44583	0.297686	0.800789	-0.406355	0.972896	0.256325	0.0390747	-0.170702	0.427686	0.123466	0	0	-0.0104	-0.0860026	-0.231419	0	0.0199914	0	0	-0.0727142	0.143389	-0.0214737	-0.105625	-0.287464	-0.0646651	1.14059	1.47714	0	0	-0.0989092	-0.266707	0.239518	1.05739	1.5708	0	0
21.62	1.17305	1.44928	0.299186	0.802299	-0.405546	0.972614	0.250716	0.0378415	-0.171915	0.41872	0.114955	0	0	-0.0123775	-0.0842734	-0.230087	0	0.0210198	0	0	-0.0723692	0.139802	-0.0229953	-0.100591	-0.290366	-0.0519409	1.09917	1.43575	0	0	-0.0971839	-0.262411	0.234682	1.01836	1.5708	0	0
21.63	1.17251	1.45313	0.301228	0.803922	-0.404656	0.972294	0.244327	0.0364141	-0.172961	0.408591	0.104585	0	0	-0.0145434	-0.0821826	-0.228991	0	0.0221407	0	0	-0.071866	0.135948	-0.0239634	-0.0955025	-0.293009	-0.037634	1.05777	1.39662	0	0	-0.0951853	-0.258106	0.22951	0.978893	1.5708	0	0
21.64	1.17346	1.45726	0.30181	0.805613	-0.403714	0.971968	0.236678	0.0347629	-0.174944	0.396858	0.0926678	0	0	-0.0168447	-0.0799825	-0.227619	0	0.0234918	0	0	-0.0716383	0.132031	-0.024229	-0.0907351	-0.295108	-0.0230008	1.01667	1.36262	0	0	-0.0921534	-0.253726	0.224719	0.937661	1.5708	0	0
21.65	1.17595	1.46173	0.300517	0.807404	-0.402697	0.97164	0.227921	0.0326209	-0.178377	0.384125	0.0832532	0	0	-0.0194462	-0.0776131	-0.226336	0	0.0249415	0	0	-0.0715785	0.128025	-0.0235458	-0.0865642	-0.296818	-0.0075342	0.976394	1.32716	0	0	-0.088345	-0.249386	0.221745	0.894043	1.5708	0	0
21.66	1.17928	1.46633	0.297683	0.809343	-0.401641	0.971305	0.218418	0.0304843	-0.18154	0.371764	0.0819318	0	0	-0.0220138	-0.0752826	-0.225688	0	0.026894	0	0	-0.071438	0.124107	-0.021991	-0.0825241	-0.298355	0.0102845	0.936944	1.28652	0	0	-0.0842819	-0.245144	0.220945	0.848105	1.5708	0	0
21.67	1.18907	1.47098	0.287874	0.811336	-0.40064	0.970984	0.208129	0.0286967	-0.183291	0.360251	0.0862897	0	0	-0.0247682	-0.0731793	-0.22563	0	0.029516	0	0	-0.0730329	0.121059	-0.0167868	-0.0814194	-0.299465	0.0247025	0.902502	1.25015	0	0	-0.077383	-0.240814	0.225992	0.800172	1.5708	0	0
21.68	1.19857	1.47526	0.278047	0.813406	-0.399673	0.970768	0.198149	0.0273877	-0.184564	0.349001	0.0906914	0	0	-0.0267454	-0.0715543	-0.225967	0	0.032523	0	0	-0.0737847	0.118054	-0.0124281	-0.0784385	-0.300955	0.046483	0.866848	1.20885	0	0	-0.0714095	-0.237668	0.238492	0.753267	1.52312	0	0
21.69	1.21947	1.47842	0.25622	0.815561	-0.398747	0.970773	0.188127	0.0273933	-0.186147	0.338306	0.0927596	0	0	-0.0289434	-0.0714342	-0.226882	0	0.0358522	0	0	-0.0755248	0.11675	-0.00659587	-0.0754685	-0.302118	0.068191	0.831602	1.17569	0	0	-0.0645508	-0.234897	0.25954	0.706228	1.44825	0	0
21.7	1.25198	1.47989	0.222099	0.81779	-0.39785	0.971049	0.178662	0.0290875	-0.188009	0.328979	0.0918991	0	0	-0.0307897	-0.0735026	-0.228779	0.00185007	0.0401424	0	0	-0.0782796	0.117632	0.000756028	-0.0728939	-0.302947	0.0887416	0.797314	1.1506	0	0	-0.0576646	-0.231719	0.284334	0.661178	1.37391	0	0
21.71	1.28367	1.47984	0.188732	0.819988	-0.397034	0.971509	0.170925	0.032006	-0.18939	0.321605	0.089681	0	0	-0.0301025	-0.07749	-0.232683	0.0125575	0.0464116	0	0	-0.0810419	0.120116	0.00831399	-0.0707065	-0.303952	0.109616	0.765529	1.13149	0	0	-0.051684	-0.227429	0.306922	0.619254	1.31004	0	0
21.72	1.30352	1.47894	0.167909	0.822086	-0.396308	0.972024	0.165112	0.0353987	-0.190318	0.315399	0.0872077	0	0	-0.0260762	-0.0825272	-0.237531	0.0269377	0.0542385	0	0	-0.0827841	0.123252	0.0150537	-0.0688251	-0.305217	0.132313	0.736563	1.1171	0	0	-0.0469588	-0.222611	0.328359	0.581917	1.2473	0	0
21.73	1.31033	1.47794	0.161079	0.824092	-0.395607	0.972539	0.160418	0.0386937	-0.19135	0.309111	0.0848023	0	0	-0.0189863	-0.087879	-0.242453	0.0446187	0.0630175	0	0	-0.0834219	0.126082	0.0209576	-0.0678405	-0.306215	0.1548	0.710505	1.11	0	0	-0.044194	-0.218168	0.34826	0.551236	1.18993	0	0
21.74	1.30576	1.47728	0.166956	0.825991	-0.394849	0.972986	0.155993	0.0416172	-0.192672	0.301543	0.0824566	0	0	-0.00950173	-0.0930233	-0.24573	0.0642886	0.0719042	0	0	-0.0828161	0.127953	0.0255922	-0.0690313	-0.306521	0.17273	0.688601	1.10242	0	0	-0.044057	-0.213973	0.361588	0.528523	1.14425	0	0
